<svg width="20" height="19" viewBox="0 0 20 19" fill="none" xmlns="http://www.w3.org/2000/svg">
<path d="M10 1.9375C7.36328 1.9375 4.97266 3.34375 3.63672 5.59375C2.33594 7.87891 2.33594 10.6562 3.63672 12.9062C4.97266 15.1914 7.36328 16.5625 10 16.5625C12.6016 16.5625 14.9922 15.1914 16.3281 12.9062C17.6289 10.6562 17.6289 7.87891 16.3281 5.59375C14.9922 3.34375 12.6016 1.9375 10 1.9375ZM10 18.25C6.76562 18.25 3.8125 16.5625 2.19531 13.75C0.578125 10.9727 0.578125 7.5625 2.19531 4.75C3.8125 1.97266 6.76562 0.25 10 0.25C13.1992 0.25 16.1523 1.97266 17.7695 4.75C19.3867 7.5625 19.3867 10.9727 17.7695 13.75C16.1523 16.5625 13.1992 18.25 10 18.25ZM13.9727 7.59766L9.47266 12.0977C9.12109 12.4492 8.59375 12.4492 8.27734 12.0977L6.02734 9.84766C5.67578 9.53125 5.67578 9.00391 6.02734 8.6875C6.34375 8.33594 6.87109 8.33594 7.22266 8.6875L8.875 10.3398L12.7773 6.4375C13.0938 6.08594 13.6211 6.08594 13.9727 6.4375C14.2891 6.75391 14.2891 7.28125 13.9727 7.59766Z" fill="#7FB645"/>
</svg>
