<svg width="19" height="19" viewBox="0 0 19 19" fill="none" xmlns="http://www.w3.org/2000/svg">
<circle cx="9.5" cy="9.5" r="9.5" transform="rotate(-90 9.5 9.5)" fill="#5C5B5A"/>
<path d="M6.0625 6.125C5.76367 6.125 5.5 6.38867 5.5 6.6875V10.0625H3.8125C3.60156 10.0625 3.39062 10.2031 3.30273 10.4141C3.21484 10.625 3.26758 10.8711 3.42578 11.0293L6.23828 13.8418C6.34375 13.9473 6.48438 14 6.625 14C6.7832 14 6.92383 13.9473 7.0293 13.8418L9.8418 11.0293C10 10.8711 10.0527 10.625 9.96484 10.4141C9.87695 10.2031 9.66602 10.0625 9.4375 10.0625H7.75L7.75 6.6875C7.75 6.38867 7.50391 6.125 7.1875 6.125H6.0625Z" fill="white"/>
<path d="M12.0625 12.875C11.7637 12.875 11.5 12.6113 11.5 12.3125V8.9375H9.8125C9.60156 8.9375 9.39062 8.79688 9.30273 8.58594C9.21484 8.375 9.26758 8.12891 9.42578 7.9707L12.2383 5.1582C12.3438 5.05273 12.4844 5 12.625 5C12.7832 5 12.9238 5.05273 13.0293 5.1582L15.8418 7.9707C16 8.12891 16.0527 8.375 15.9648 8.58594C15.877 8.79688 15.666 8.9375 15.4375 8.9375H13.75V12.3125C13.75 12.6113 13.5039 12.875 13.1875 12.875H12.0625Z" fill="white"/>
</svg>
